<svg id="svg" version="1.1" xmlns="http://www.w3.org/2000/svg" xmlns:xlink="http://www.w3.org/1999/xlink" width="400" height="400" viewBox="0, 0, 400,400"><g id="svgg"><path id="path0" d="M220.703 167.600 C 212.306 168.274,205.621 171.539,199.828 177.796 C 193.729 184.383,191.669 190.416,190.644 204.688 C 189.541 220.046,187.476 226.041,180.933 232.890 C 173.368 240.808,164.922 244.312,151.953 244.911 C 129.980 245.927,115.722 259.138,115.896 278.320 C 116.139 305.231,145.859 320.472,168.104 305.094 C 177.706 298.456,180.680 292.035,182.220 274.609 C 183.885 255.777,187.823 247.501,198.504 240.388 C 211.521 231.720,239.007 231.781,252.506 240.509 C 261.945 246.612,265.886 253.857,267.970 268.945 C 270.083 284.238,270.697 286.826,273.504 292.253 C 280.981 306.707,300.378 312.626,316.247 305.294 C 336.358 296.002,341.185 269.022,325.635 252.824 C 319.282 246.207,314.321 244.356,297.656 242.383 C 279.624 240.248,273.377 237.678,267.083 229.806 C 260.895 222.065,258.640 215.370,257.637 201.758 C 256.844 190.999,255.908 187.891,251.488 181.337 C 246.145 173.415,237.737 168.348,228.925 167.743 C 227.303 167.631,225.537 167.494,225.000 167.437 C 224.463 167.380,222.529 167.454,220.703 167.600 " stroke="none" fill="#f16e15" fill-rule="evenodd"></path><path id="path1" d="M133.887 93.192 C 132.372 94.014,132.544 94.297,134.082 93.515 C 135.555 92.766,135.815 92.572,135.319 92.594 C 135.122 92.602,134.478 92.872,133.887 93.192 M300.488 92.863 C 301.294 92.947,302.612 92.947,303.418 92.863 C 304.224 92.778,303.564 92.709,301.953 92.709 C 300.342 92.709,299.683 92.778,300.488 92.863 M296.582 93.238 C 296.958 93.336,297.573 93.336,297.949 93.238 C 298.325 93.140,298.018 93.059,297.266 93.059 C 296.514 93.059,296.206 93.140,296.582 93.238 M305.957 93.238 C 306.333 93.336,306.948 93.336,307.324 93.238 C 307.700 93.140,307.393 93.059,306.641 93.059 C 305.889 93.059,305.581 93.140,305.957 93.238 M310.742 94.141 C 311.172 94.325,311.787 94.476,312.109 94.476 C 312.479 94.476,312.406 94.352,311.914 94.141 C 311.484 93.956,310.869 93.805,310.547 93.805 C 310.178 93.805,310.250 93.929,310.742 94.141 M127.124 98.145 L 125.977 99.414 127.246 98.267 C 128.429 97.197,128.695 96.875,128.393 96.875 C 128.326 96.875,127.755 97.446,127.124 98.145 M173.047 100.586 C 174.431 101.982,175.651 103.125,175.759 103.125 C 175.866 103.125,174.822 101.982,173.438 100.586 C 172.053 99.189,170.833 98.047,170.726 98.047 C 170.618 98.047,171.663 99.189,173.047 100.586 M115.142 128.906 C 114.399 144.914,104.598 158.613,90.854 162.853 C 88.042 163.720,83.265 164.380,72.126 165.437 C 58.057 166.773,51.577 169.807,44.802 178.231 C 34.661 190.840,36.129 212.256,47.839 222.564 C 55.386 229.207,60.658 231.168,73.844 232.238 C 86.067 233.230,92.172 235.233,99.166 240.545 C 107.377 246.781,109.714 251.722,113.057 269.922 C 113.827 274.111,114.690 278.418,114.976 279.492 L 115.496 281.445 115.704 276.758 C 115.984 270.469,119.350 260.842,122.123 258.398 C 122.367 258.184,122.631 257.801,122.709 257.549 C 122.916 256.882,127.901 252.568,130.318 250.964 C 135.385 247.601,141.744 245.302,147.852 244.625 L 150.586 244.322 144.922 243.614 C 116.006 239.998,104.580 227.990,104.536 201.172 C 104.490 173.312,116.042 157.873,137.750 156.784 C 142.871 156.527,144.141 156.191,141.781 155.719 C 129.003 153.164,117.835 140.876,115.828 127.164 L 115.369 124.023 115.142 128.906 M325.185 149.316 L 322.461 152.148 325.293 149.425 C 326.851 147.926,328.125 146.652,328.125 146.593 C 328.125 146.306,327.715 146.686,325.185 149.316 M193.164 156.641 C 194.656 158.145,195.965 159.375,196.073 159.375 C 196.180 159.375,195.047 158.145,193.555 156.641 C 192.062 155.137,190.753 153.906,190.646 153.906 C 190.539 153.906,191.672 155.137,193.164 156.641 M257.993 156.348 L 256.055 158.398 258.105 156.460 C 260.011 154.659,260.335 154.297,260.044 154.297 C 259.982 154.297,259.059 155.220,257.993 156.348 M150.114 156.931 C 151.573 157.006,153.858 157.005,155.192 156.929 C 156.526 156.853,155.332 156.792,152.539 156.792 C 149.746 156.793,148.655 156.855,150.114 156.931 M228.418 167.463 C 228.901 167.556,229.692 167.556,230.176 167.463 C 230.659 167.370,230.264 167.294,229.297 167.294 C 228.330 167.294,227.935 167.370,228.418 167.463 M268.931 169.629 L 266.992 171.680 269.043 169.741 C 270.949 167.940,271.273 167.578,270.981 167.578 C 270.920 167.578,269.997 168.501,268.931 169.629 M258.310 192.969 C 258.310 193.936,258.386 194.331,258.479 193.848 C 258.572 193.364,258.572 192.573,258.479 192.090 C 258.386 191.606,258.310 192.002,258.310 192.969 M257.949 199.219 C 257.949 201.045,258.016 201.792,258.099 200.879 C 258.181 199.966,258.181 198.472,258.099 197.559 C 258.016 196.646,257.949 197.393,257.949 199.219 M180.259 233.301 L 178.320 235.352 180.371 233.413 C 181.499 232.347,182.422 231.424,182.422 231.362 C 182.422 231.071,182.060 231.395,180.259 233.301 M225.293 234.260 C 225.776 234.353,226.567 234.353,227.051 234.260 C 227.534 234.167,227.139 234.091,226.172 234.091 C 225.205 234.091,224.810 234.167,225.293 234.260 M192.969 245.117 C 192.020 246.084,191.331 246.875,191.439 246.875 C 191.546 246.875,192.411 246.084,193.359 245.117 C 194.308 244.150,194.997 243.359,194.889 243.359 C 194.782 243.359,193.918 244.150,192.969 245.117 M334.887 275.586 C 334.889 276.875,334.962 277.355,335.049 276.653 C 335.136 275.951,335.134 274.896,335.045 274.309 C 334.956 273.722,334.884 274.297,334.887 275.586 " stroke="none" fill="#5b2b2b" fill-rule="evenodd"></path><path id="path2" d="M143.569 90.253 C 139.494 90.891,132.031 93.929,132.031 94.950 C 132.031 95.175,131.854 95.249,131.638 95.115 C 131.422 94.982,131.139 95.146,131.011 95.481 C 130.883 95.815,130.645 96.007,130.483 95.907 C 130.090 95.664,125.857 99.363,124.012 101.563 C 110.400 117.784,114.108 140.905,132.024 151.528 C 138.505 155.371,141.881 156.263,151.367 156.637 C 175.916 157.605,188.411 169.701,190.445 194.468 C 190.753 198.221,191.084 198.188,191.759 194.336 C 194.369 179.443,205.833 168.847,220.703 167.585 L 224.023 167.303 221.289 167.241 C 209.727 166.980,200.624 163.712,193.996 157.442 C 185.946 149.828,183.408 142.787,182.019 124.219 C 181.123 112.237,179.217 107.076,173.463 101.048 C 165.628 92.838,153.960 88.625,143.569 90.253 M295.837 93.520 C 278.942 96.747,271.512 106.229,268.567 128.320 C 266.164 146.351,263.669 152.192,255.582 158.724 C 249.746 163.437,239.655 167.168,232.672 167.193 C 231.782 167.197,230.791 167.370,230.469 167.578 C 230.009 167.875,230.105 167.958,230.916 167.963 C 242.795 168.032,256.261 183.072,257.327 197.461 L 257.587 200.977 258.063 195.508 C 259.942 173.936,271.032 162.505,292.578 159.934 C 313.883 157.392,318.482 155.823,325.603 148.668 C 337.252 136.965,337.940 117.271,327.156 104.198 C 320.453 96.071,306.817 91.422,295.837 93.520 M225.293 167.463 C 225.776 167.556,226.567 167.556,227.051 167.463 C 227.534 167.370,227.139 167.294,226.172 167.294 C 225.205 167.294,224.810 167.370,225.293 167.463 M190.756 201.172 C 190.756 202.783,190.825 203.442,190.910 202.637 C 190.994 201.831,190.994 200.513,190.910 199.707 C 190.825 198.901,190.756 199.561,190.756 201.172 M257.934 204.492 C 257.936 205.781,258.009 206.262,258.096 205.559 C 258.183 204.857,258.181 203.803,258.092 203.216 C 258.002 202.629,257.931 203.203,257.934 204.492 M190.333 206.836 C 190.337 207.695,190.417 208.001,190.511 207.515 C 190.604 207.029,190.601 206.326,190.503 205.952 C 190.405 205.579,190.329 205.977,190.333 206.836 M258.310 208.984 C 258.310 209.951,258.386 210.347,258.479 209.863 C 258.572 209.380,258.572 208.589,258.479 208.105 C 258.386 207.622,258.310 208.018,258.310 208.984 M269.124 232.129 C 270.743 233.854,271.094 234.164,271.094 233.870 C 271.094 233.808,270.259 232.973,269.238 232.015 L 267.383 230.273 269.124 232.129 M221.582 234.264 C 222.173 234.354,223.140 234.354,223.730 234.264 C 224.321 234.175,223.838 234.101,222.656 234.101 C 221.475 234.101,220.991 234.175,221.582 234.264 M201.465 238.505 C 199.950 239.326,200.122 239.610,201.660 238.828 C 203.133 238.079,203.393 237.885,202.897 237.906 C 202.700 237.915,202.056 238.184,201.465 238.505 M198.333 240.444 C 197.531 240.989,196.875 241.518,196.875 241.621 C 196.875 241.724,197.578 241.343,198.438 240.774 C 199.802 239.871,200.263 239.453,199.895 239.453 C 199.838 239.453,199.135 239.899,198.333 240.444 M169.922 240.625 C 169.170 241.037,168.695 241.381,168.867 241.390 C 169.281 241.412,171.484 240.266,171.484 240.029 C 171.484 239.773,171.462 239.782,169.922 240.625 M165.430 242.438 C 164.141 242.956,163.613 243.274,164.258 243.144 C 165.472 242.900,168.854 241.463,168.164 241.484 C 167.949 241.491,166.719 241.920,165.430 242.438 M291.504 241.676 C 291.880 241.774,292.495 241.774,292.871 241.676 C 293.247 241.577,292.939 241.497,292.188 241.497 C 291.436 241.497,291.128 241.577,291.504 241.676 M294.824 242.073 C 295.308 242.166,296.099 242.166,296.582 242.073 C 297.065 241.979,296.670 241.903,295.703 241.903 C 294.736 241.903,294.341 241.979,294.824 242.073 M298.344 242.464 C 298.830 242.557,299.533 242.554,299.907 242.456 C 300.280 242.358,299.883 242.282,299.023 242.286 C 298.164 242.290,297.858 242.370,298.344 242.464 M257.813 245.117 C 259.197 246.514,260.417 247.656,260.524 247.656 C 260.632 247.656,259.587 246.514,258.203 245.117 C 256.819 243.721,255.599 242.578,255.491 242.578 C 255.384 242.578,256.428 243.721,257.813 245.117 M301.860 242.854 C 302.346 242.948,303.049 242.944,303.423 242.847 C 303.796 242.749,303.398 242.672,302.539 242.677 C 301.680 242.681,301.374 242.761,301.860 242.854 M149.316 244.821 C 150.767 244.896,153.140 244.896,154.590 244.821 C 156.040 244.746,154.854 244.684,151.953 244.684 C 149.053 244.684,147.866 244.746,149.316 244.821 M325.195 252.344 C 326.688 253.848,327.997 255.078,328.104 255.078 C 328.211 255.078,327.078 253.848,325.586 252.344 C 324.094 250.840,322.785 249.609,322.677 249.609 C 322.570 249.609,323.703 250.840,325.195 252.344 M124.792 255.566 L 122.461 258.008 124.902 255.676 C 127.170 253.511,127.522 253.125,127.234 253.125 C 127.173 253.125,126.075 254.224,124.792 255.566 M276.953 297.852 C 277.682 298.604,278.366 299.219,278.474 299.219 C 278.581 299.219,278.073 298.604,277.344 297.852 C 276.615 297.100,275.931 296.484,275.823 296.484 C 275.716 296.484,276.224 297.100,276.953 297.852 M325.377 299.121 L 323.242 301.367 325.488 299.232 C 327.575 297.249,327.913 296.875,327.623 296.875 C 327.562 296.875,326.552 297.886,325.377 299.121 M173.047 300.977 C 172.098 301.943,171.410 302.734,171.517 302.734 C 171.624 302.734,172.489 301.943,173.438 300.977 C 174.386 300.010,175.075 299.219,174.967 299.219 C 174.860 299.219,173.996 300.010,173.047 300.977 M124.609 300.903 C 124.609 300.971,125.181 301.542,125.879 302.173 L 127.148 303.320 126.001 302.051 C 124.932 300.867,124.609 300.602,124.609 300.903 M167.267 305.636 C 165.453 306.919,165.197 307.286,166.729 306.408 C 167.444 305.999,168.213 305.444,168.437 305.176 C 169.015 304.486,168.744 304.592,167.267 305.636 M290.430 306.850 C 291.074 307.145,291.865 307.381,292.188 307.375 C 292.510 307.368,292.158 307.126,291.406 306.836 C 289.623 306.149,288.921 306.159,290.430 306.850 M132.422 307.224 C 132.422 307.487,136.376 309.457,136.551 309.282 C 136.631 309.202,135.735 308.665,134.559 308.088 C 133.384 307.511,132.422 307.123,132.422 307.224 M310.352 307.422 C 309.859 307.633,309.787 307.758,310.156 307.758 C 310.479 307.758,311.094 307.607,311.523 307.422 C 312.016 307.210,312.088 307.086,311.719 307.086 C 311.396 307.086,310.781 307.237,310.352 307.422 M297.173 308.479 C 297.658 308.573,298.362 308.569,298.735 308.472 C 299.108 308.374,298.711 308.297,297.852 308.302 C 296.992 308.306,296.687 308.386,297.173 308.479 M305.176 308.472 C 305.552 308.571,306.167 308.571,306.543 308.472 C 306.919 308.374,306.611 308.294,305.859 308.294 C 305.107 308.294,304.800 308.374,305.176 308.472 M147.559 311.604 C 148.042 311.697,148.833 311.697,149.316 311.604 C 149.800 311.511,149.404 311.435,148.438 311.435 C 147.471 311.435,147.075 311.511,147.559 311.604 " stroke="none" fill="#ab4b1c" fill-rule="evenodd"></path><path id="path3" d="M56.622 0.596 C 54.786 0.883,51.534 1.588,49.396 2.163 C 47.257 2.739,45.129 3.234,44.666 3.265 C 44.203 3.295,43.923 3.480,44.044 3.675 C 44.164 3.870,43.883 3.930,43.420 3.809 C 42.880 3.668,42.669 3.738,42.834 4.004 C 42.999 4.271,42.788 4.341,42.248 4.200 C 41.703 4.057,41.497 4.128,41.665 4.400 C 41.831 4.668,41.683 4.727,41.255 4.563 C 40.806 4.391,40.676 4.454,40.861 4.754 C 41.049 5.058,40.868 5.131,40.295 4.981 C 39.749 4.838,39.544 4.909,39.712 5.181 C 39.878 5.450,39.730 5.509,39.302 5.344 C 38.850 5.171,38.722 5.235,38.911 5.540 C 39.099 5.845,38.972 5.908,38.520 5.735 C 38.069 5.562,37.941 5.625,38.130 5.930 C 38.318 6.235,38.191 6.299,37.739 6.126 C 37.287 5.952,37.160 6.016,37.348 6.321 C 37.537 6.626,37.410 6.690,36.958 6.516 C 36.506 6.343,36.379 6.407,36.567 6.711 C 36.756 7.016,36.628 7.080,36.177 6.907 C 35.725 6.733,35.597 6.797,35.786 7.102 C 35.974 7.407,35.847 7.471,35.395 7.297 C 35.027 7.156,34.813 7.182,34.920 7.356 C 35.112 7.667,31.124 10.156,30.434 10.156 C 30.238 10.156,30.078 10.332,30.078 10.547 C 30.078 10.762,29.840 10.938,29.549 10.938 C 29.258 10.937,28.546 11.377,27.967 11.914 C 27.387 12.451,26.765 12.891,26.584 12.891 C 26.403 12.891,26.154 13.154,26.031 13.477 C 25.907 13.799,25.613 14.062,25.378 14.063 C 25.142 14.063,24.500 14.597,23.950 15.251 C 23.400 15.904,22.864 16.354,22.760 16.249 C 22.655 16.145,22.133 16.577,21.601 17.210 C 21.068 17.843,20.499 18.279,20.337 18.179 C 19.969 17.952,17.877 20.090,18.175 20.389 C 18.295 20.508,17.867 21.048,17.226 21.588 C 16.584 22.128,16.145 22.655,16.249 22.760 C 16.354 22.864,15.904 23.400,15.251 23.950 C 14.597 24.500,14.063 25.142,14.063 25.378 C 14.063 25.613,13.799 25.907,13.477 26.031 C 13.154 26.154,12.891 26.403,12.891 26.584 C 12.891 26.765,12.451 27.387,11.914 27.967 C 11.377 28.546,10.937 29.258,10.937 29.549 C 10.937 29.840,10.762 30.078,10.547 30.078 C 10.332 30.078,10.156 30.238,10.156 30.434 C 10.156 31.124,7.667 35.112,7.356 34.920 C 7.182 34.813,7.156 35.027,7.297 35.395 C 7.471 35.847,7.407 35.974,7.102 35.786 C 6.797 35.597,6.733 35.725,6.907 36.177 C 7.080 36.628,7.016 36.756,6.711 36.567 C 6.407 36.379,6.343 36.506,6.516 36.958 C 6.690 37.410,6.626 37.537,6.321 37.348 C 6.016 37.160,5.952 37.287,6.126 37.739 C 6.299 38.191,6.235 38.318,5.930 38.130 C 5.625 37.941,5.562 38.069,5.735 38.520 C 5.923 39.011,5.854 39.105,5.475 38.871 C 5.129 38.657,5.051 38.702,5.238 39.006 C 5.605 39.599,5.128 41.093,4.664 40.806 C 4.467 40.684,4.421 40.885,4.563 41.255 C 4.727 41.683,4.668 41.831,4.400 41.665 C 4.128 41.497,4.057 41.703,4.200 42.248 C 4.341 42.788,4.271 42.999,4.004 42.834 C 3.738 42.669,3.668 42.880,3.809 43.420 C 3.935 43.900,3.871 44.165,3.661 44.035 C 3.458 43.910,3.281 44.102,3.267 44.462 C 3.253 44.822,2.770 46.931,2.193 49.148 C -0.139 58.113,0.005 48.208,0.005 200.000 C 0.005 351.706,-0.134 342.078,2.178 350.663 C 2.745 352.769,3.234 354.871,3.265 355.334 C 3.295 355.797,3.480 356.077,3.675 355.956 C 3.870 355.836,3.930 356.117,3.809 356.580 C 3.668 357.120,3.738 357.331,4.004 357.166 C 4.271 357.001,4.341 357.212,4.200 357.752 C 4.057 358.297,4.128 358.503,4.400 358.335 C 4.668 358.169,4.727 358.317,4.563 358.745 C 4.421 359.115,4.467 359.316,4.664 359.194 C 5.128 358.907,5.605 360.401,5.238 360.994 C 5.051 361.298,5.129 361.343,5.475 361.129 C 5.854 360.895,5.923 360.989,5.735 361.480 C 5.562 361.931,5.625 362.059,5.930 361.870 C 6.235 361.682,6.299 361.809,6.126 362.261 C 5.952 362.713,6.016 362.840,6.321 362.652 C 6.626 362.463,6.690 362.590,6.516 363.042 C 6.343 363.494,6.407 363.621,6.711 363.433 C 7.016 363.244,7.080 363.372,6.907 363.823 C 6.733 364.275,6.797 364.403,7.102 364.214 C 7.407 364.026,7.471 364.153,7.297 364.605 C 7.156 364.973,7.182 365.187,7.356 365.080 C 7.667 364.888,10.156 368.876,10.156 369.566 C 10.156 369.762,10.332 369.922,10.547 369.922 C 10.762 369.922,10.938 370.160,10.938 370.451 C 10.938 370.742,11.377 371.454,11.914 372.033 C 12.451 372.613,12.891 373.235,12.891 373.416 C 12.891 373.597,13.154 373.846,13.477 373.969 C 13.799 374.093,14.062 374.336,14.062 374.508 C 14.062 374.681,15.024 375.855,16.198 377.117 C 17.373 378.380,18.258 379.535,18.165 379.685 C 17.957 380.023,20.095 382.118,20.369 381.844 C 20.478 381.736,21.598 382.606,22.858 383.779 C 24.118 384.952,25.380 386.000,25.661 386.107 C 25.942 386.215,26.172 386.485,26.172 386.706 C 26.172 386.928,26.339 387.109,26.542 387.109 C 26.746 387.109,27.366 387.529,27.919 388.042 C 28.472 388.554,29.404 389.214,29.990 389.508 C 33.108 391.070,35.110 392.336,34.929 392.629 C 34.817 392.811,35.027 392.844,35.395 392.703 C 35.847 392.529,35.974 392.593,35.786 392.898 C 35.597 393.203,35.725 393.267,36.177 393.093 C 36.628 392.920,36.756 392.984,36.567 393.289 C 36.379 393.593,36.506 393.657,36.958 393.484 C 37.410 393.310,37.537 393.374,37.348 393.679 C 37.160 393.984,37.287 394.048,37.739 393.874 C 38.191 393.701,38.318 393.765,38.130 394.070 C 37.941 394.375,38.069 394.438,38.520 394.265 C 38.972 394.092,39.099 394.155,38.911 394.460 C 38.722 394.765,38.850 394.829,39.302 394.656 C 39.730 394.491,39.878 394.550,39.712 394.819 C 39.544 395.091,39.749 395.162,40.295 395.019 C 40.868 394.869,41.049 394.942,40.861 395.246 C 40.676 395.546,40.806 395.609,41.255 395.437 C 41.683 395.273,41.831 395.332,41.665 395.600 C 41.497 395.872,41.703 395.943,42.248 395.800 C 42.788 395.659,42.999 395.729,42.834 395.996 C 42.669 396.262,42.880 396.332,43.420 396.191 C 43.883 396.070,44.164 396.130,44.044 396.325 C 43.923 396.520,44.203 396.705,44.666 396.735 C 45.129 396.766,47.231 397.255,49.337 397.822 C 57.922 400.134,48.294 399.995,200.000 399.995 C 352.864 399.995,341.901 400.165,351.485 397.658 C 353.938 397.017,356.129 396.605,356.354 396.744 C 356.609 396.902,356.642 396.803,356.442 396.478 C 356.207 396.100,356.301 396.030,356.792 396.218 C 357.240 396.390,357.371 396.327,357.186 396.028 C 356.998 395.723,357.179 395.651,357.752 395.800 C 358.297 395.943,358.503 395.872,358.335 395.600 C 358.169 395.332,358.317 395.273,358.745 395.437 C 359.115 395.579,359.316 395.533,359.194 395.336 C 358.907 394.872,360.401 394.395,360.994 394.762 C 361.298 394.949,361.343 394.871,361.129 394.525 C 360.895 394.146,360.989 394.077,361.480 394.265 C 361.931 394.438,362.059 394.375,361.870 394.070 C 361.682 393.765,361.809 393.701,362.261 393.874 C 362.713 394.048,362.840 393.984,362.652 393.679 C 362.463 393.374,362.590 393.310,363.042 393.484 C 363.494 393.657,363.621 393.593,363.433 393.289 C 363.244 392.984,363.372 392.920,363.823 393.093 C 364.275 393.267,364.403 393.203,364.214 392.898 C 364.026 392.593,364.153 392.529,364.605 392.703 C 364.973 392.844,365.183 392.811,365.071 392.629 C 364.890 392.336,366.892 391.070,370.010 389.508 C 370.596 389.214,371.528 388.554,372.081 388.042 C 372.634 387.529,373.235 387.109,373.416 387.109 C 373.597 387.109,373.846 386.846,373.969 386.523 C 374.093 386.201,374.387 385.937,374.622 385.937 C 374.858 385.937,375.500 385.403,376.050 384.749 C 376.600 384.096,377.136 383.646,377.240 383.751 C 377.345 383.855,377.867 383.423,378.399 382.790 C 378.932 382.157,379.501 381.721,379.663 381.821 C 380.031 382.048,382.123 379.910,381.825 379.611 C 381.705 379.492,382.133 378.952,382.774 378.412 C 383.416 377.872,383.855 377.345,383.751 377.240 C 383.646 377.136,384.061 376.629,384.673 376.114 C 385.285 375.600,385.902 374.875,386.045 374.503 C 386.187 374.132,386.485 373.828,386.706 373.828 C 386.928 373.828,387.109 373.661,387.109 373.458 C 387.109 373.254,387.529 372.634,388.042 372.081 C 388.554 371.528,389.214 370.596,389.508 370.010 C 391.070 366.892,392.336 364.890,392.629 365.071 C 392.811 365.183,392.844 364.973,392.703 364.605 C 392.529 364.153,392.593 364.026,392.898 364.214 C 393.203 364.403,393.267 364.275,393.093 363.823 C 392.920 363.372,392.984 363.244,393.289 363.433 C 393.593 363.621,393.657 363.494,393.484 363.042 C 393.310 362.590,393.374 362.463,393.679 362.652 C 393.984 362.840,394.048 362.713,393.874 362.261 C 393.701 361.809,393.765 361.682,394.070 361.870 C 394.375 362.059,394.438 361.931,394.265 361.480 C 394.077 360.989,394.146 360.895,394.525 361.129 C 394.871 361.343,394.949 361.298,394.762 360.994 C 394.395 360.401,394.872 358.907,395.336 359.194 C 395.533 359.316,395.579 359.115,395.437 358.745 C 395.273 358.317,395.332 358.169,395.600 358.335 C 395.872 358.503,395.943 358.297,395.800 357.752 C 395.659 357.212,395.729 357.001,395.996 357.166 C 396.262 357.331,396.332 357.120,396.191 356.580 C 396.070 356.117,396.130 355.836,396.325 355.956 C 396.520 356.077,396.705 355.797,396.735 355.334 C 396.766 354.871,397.255 352.769,397.822 350.663 C 400.134 342.078,399.995 351.706,399.995 200.000 C 399.995 48.208,400.139 58.113,397.807 49.148 C 397.230 46.931,396.747 44.822,396.733 44.462 C 396.719 44.102,396.542 43.910,396.339 44.035 C 396.129 44.165,396.065 43.900,396.191 43.420 C 396.332 42.880,396.262 42.669,395.996 42.834 C 395.729 42.999,395.659 42.788,395.800 42.248 C 395.943 41.703,395.872 41.497,395.600 41.665 C 395.332 41.831,395.273 41.683,395.437 41.255 C 395.579 40.885,395.533 40.684,395.336 40.806 C 394.872 41.093,394.395 39.599,394.762 39.006 C 394.949 38.702,394.871 38.657,394.525 38.871 C 394.146 39.105,394.077 39.011,394.265 38.520 C 394.438 38.069,394.375 37.941,394.070 38.130 C 393.765 38.318,393.701 38.191,393.874 37.739 C 394.048 37.287,393.984 37.160,393.679 37.348 C 393.374 37.537,393.310 37.410,393.484 36.958 C 393.657 36.506,393.593 36.379,393.289 36.567 C 392.984 36.756,392.920 36.628,393.093 36.177 C 393.267 35.725,393.203 35.597,392.898 35.786 C 392.593 35.974,392.529 35.847,392.703 35.395 C 392.844 35.027,392.814 34.815,392.637 34.925 C 392.459 35.035,391.951 34.472,391.508 33.676 C 391.065 32.879,390.316 31.523,389.844 30.664 C 388.765 28.703,387.116 26.464,386.447 26.055 C 386.167 25.883,385.938 25.564,385.938 25.346 C 385.938 25.128,385.403 24.500,384.749 23.950 C 384.096 23.400,383.646 22.864,383.751 22.760 C 383.855 22.655,383.416 22.128,382.774 21.588 C 382.133 21.048,381.705 20.508,381.825 20.389 C 382.123 20.090,380.031 17.952,379.663 18.179 C 379.501 18.279,378.932 17.843,378.399 17.210 C 377.867 16.577,377.345 16.145,377.240 16.249 C 377.136 16.354,376.600 15.904,376.050 15.251 C 375.500 14.597,374.872 14.062,374.654 14.062 C 374.436 14.062,374.117 13.833,373.945 13.553 C 373.536 12.884,371.297 11.235,369.336 10.156 C 368.477 9.684,367.121 8.935,366.324 8.492 C 365.528 8.049,364.965 7.541,365.075 7.363 C 365.185 7.186,364.973 7.156,364.605 7.297 C 364.153 7.471,364.026 7.407,364.214 7.102 C 364.403 6.797,364.275 6.733,363.823 6.907 C 363.372 7.080,363.244 7.016,363.433 6.711 C 363.621 6.407,363.494 6.343,363.042 6.516 C 362.590 6.690,362.463 6.626,362.652 6.321 C 362.840 6.016,362.713 5.952,362.261 6.126 C 361.809 6.299,361.682 6.235,361.870 5.930 C 362.059 5.625,361.931 5.562,361.480 5.735 C 360.989 5.923,360.895 5.854,361.129 5.475 C 361.343 5.129,361.298 5.051,360.994 5.238 C 360.401 5.605,358.907 5.128,359.194 4.664 C 359.316 4.467,359.115 4.421,358.745 4.563 C 358.317 4.727,358.169 4.668,358.335 4.400 C 358.503 4.128,358.297 4.057,357.752 4.200 C 357.179 4.349,356.998 4.277,357.186 3.972 C 357.371 3.673,357.240 3.610,356.792 3.782 C 356.301 3.970,356.207 3.900,356.442 3.522 C 356.642 3.197,356.609 3.098,356.354 3.256 C 356.129 3.395,353.938 2.983,351.485 2.342 C 341.895 -0.166,352.936 0.001,199.609 0.040 C 85.332 0.069,59.354 0.170,56.622 0.596 M155.665 90.580 C 171.220 93.790,180.620 104.987,182.043 122.001 C 183.231 136.214,184.386 141.926,187.261 147.805 C 193.753 161.083,205.749 166.962,226.367 166.970 C 233.260 166.972,235.502 166.838,237.695 166.289 C 256.834 161.502,264.810 152.771,267.561 133.594 C 268.007 130.479,268.648 125.996,268.984 123.633 C 271.521 105.790,280.793 95.491,296.605 92.953 C 329.026 87.749,348.399 127.219,324.657 150.107 C 318.639 155.908,313.436 157.744,297.867 159.559 C 284.219 161.150,278.897 162.511,274.261 165.592 C 251.708 180.583,253.039 224.955,276.408 237.192 C 280.842 239.513,285.275 240.521,296.680 241.801 C 318.050 244.200,326.115 248.633,331.848 261.133 C 332.637 262.852,333.443 264.609,333.639 265.039 C 335.092 268.214,335.611 277.672,334.595 282.465 C 330.030 304.005,306.511 315.178,286.523 305.302 C 275.151 299.683,270.985 292.224,268.180 272.461 C 266.821 262.881,266.546 261.622,264.598 256.014 C 258.856 239.485,239.627 231.683,214.063 235.508 C 193.026 238.656,184.242 250.247,182.207 277.539 C 180.663 298.247,169.150 310.494,150.195 311.591 C 130.623 312.724,118.229 299.724,113.078 272.656 C 109.826 255.567,109.265 253.476,106.877 249.510 C 100.950 239.668,90.184 233.889,75.405 232.617 C 62.287 231.489,58.329 230.453,52.551 226.636 C 34.277 214.563,32.356 187.918,48.728 173.605 C 55.539 167.650,60.632 166.093,79.297 164.257 C 102.486 161.977,113.317 150.407,115.049 126.066 C 115.734 116.440,117.041 111.923,121.114 105.107 C 127.977 93.621,141.945 87.748,155.665 90.580 M139.063 157.112 C 116.104 158.424,105.010 172.636,104.971 200.781 C 104.941 223.206,114.135 236.791,132.206 241.022 C 138.018 242.383,151.990 244.340,155.273 244.252 C 169.811 243.865,186.148 231.679,188.414 219.531 C 188.514 218.994,188.696 218.115,188.818 217.578 C 190.716 209.235,190.879 196.902,189.232 186.328 C 187.281 173.805,180.099 165.265,166.752 159.597 C 161.481 157.359,151.079 156.425,139.063 157.112 " stroke="none" fill="#04042c" fill-rule="evenodd"></path><path id="path4" d="M277.905 102.441 L 276.758 103.711 278.027 102.564 C 278.726 101.933,279.297 101.361,279.297 101.294 C 279.297 100.992,278.975 101.258,277.905 102.441 M334.887 125.977 C 334.889 127.266,334.962 127.746,335.049 127.044 C 335.136 126.342,335.134 125.287,335.045 124.700 C 334.956 124.113,334.884 124.688,334.887 125.977 M102.323 156.152 L 100.977 157.617 102.441 156.271 C 103.247 155.531,103.906 154.871,103.906 154.806 C 103.906 154.508,103.576 154.789,102.323 156.152 M137.598 156.925 C 138.403 157.009,139.722 157.009,140.527 156.925 C 141.333 156.841,140.674 156.772,139.063 156.772 C 137.451 156.772,136.792 156.841,137.598 156.925 M132.719 157.308 C 133.205 157.401,133.908 157.397,134.282 157.300 C 134.655 157.202,134.258 157.125,133.398 157.130 C 132.539 157.134,132.233 157.214,132.719 157.308 M48.807 173.730 L 47.461 175.195 48.926 173.849 C 50.289 172.596,50.570 172.266,50.272 172.266 C 50.207 172.266,49.547 172.925,48.807 173.730 M108.965 175.428 C 108.516 176.309,108.216 177.096,108.298 177.178 C 108.379 177.260,108.829 176.539,109.296 175.577 C 110.361 173.386,110.073 173.257,108.965 175.428 M41.192 183.239 C 40.849 183.904,40.637 184.517,40.721 184.602 C 40.806 184.686,41.168 184.143,41.525 183.394 C 42.329 181.709,42.050 181.580,41.192 183.239 M104.449 200.977 C 104.449 203.770,104.512 204.861,104.587 203.402 C 104.662 201.943,104.662 199.657,104.586 198.324 C 104.510 196.990,104.448 198.184,104.449 200.977 M40.625 212.646 C 40.625 213.068,42.177 216.016,42.399 216.016 C 42.506 216.016,42.217 215.269,41.757 214.355 C 40.851 212.560,40.625 212.218,40.625 212.646 M106.305 216.406 C 106.305 216.729,106.456 217.344,106.641 217.773 C 106.852 218.266,106.976 218.338,106.976 217.969 C 106.976 217.646,106.825 217.031,106.641 216.602 C 106.429 216.109,106.305 216.037,106.305 216.406 M102.148 243.359 C 102.988 244.219,103.762 244.922,103.869 244.922 C 103.977 244.922,103.378 244.219,102.539 243.359 C 101.700 242.500,100.925 241.797,100.818 241.797 C 100.711 241.797,101.309 242.500,102.148 243.359 M139.160 242.847 C 139.536 242.946,140.151 242.946,140.527 242.847 C 140.903 242.749,140.596 242.669,139.844 242.669 C 139.092 242.669,138.784 242.749,139.160 242.847 M145.020 243.629 C 145.396 243.727,146.011 243.727,146.387 243.629 C 146.763 243.530,146.455 243.450,145.703 243.450 C 144.951 243.450,144.644 243.530,145.020 243.629 " stroke="none" fill="#391c2c" fill-rule="evenodd"></path><path id="path5" d="M115.405 166.504 L 114.258 167.773 115.527 166.626 C 116.711 165.557,116.976 165.234,116.675 165.234 C 116.607 165.234,116.036 165.806,115.405 166.504 M179.297 167.310 C 179.297 167.377,179.868 167.948,180.566 168.579 L 181.836 169.727 180.689 168.457 C 179.619 167.274,179.297 167.008,179.297 167.310 M104.778 194.531 C 104.778 195.283,104.859 195.591,104.957 195.215 C 105.055 194.839,105.055 194.224,104.957 193.848 C 104.859 193.472,104.778 193.779,104.778 194.531 M37.599 198.633 C 37.603 199.492,37.683 199.798,37.776 199.312 C 37.870 198.826,37.866 198.123,37.768 197.749 C 37.671 197.376,37.594 197.773,37.599 198.633 M46.859 221.973 C 47.816 222.993,48.651 223.828,48.714 223.828 C 49.007 223.828,48.697 223.477,46.973 221.859 L 45.117 220.117 46.859 221.973 M268.359 230.982 C 268.359 231.049,268.931 231.620,269.629 232.251 L 270.898 233.398 269.751 232.129 C 268.682 230.946,268.359 230.680,268.359 230.982 " stroke="none" fill="#2b112c" fill-rule="evenodd"></path><path id="path6" d="M114.955 128.320 C 114.958 129.395,115.034 129.788,115.124 129.194 C 115.214 128.600,115.211 127.721,115.119 127.241 C 115.026 126.760,114.953 127.246,114.955 128.320 M76.270 164.722 C 76.646 164.821,77.261 164.821,77.637 164.722 C 78.013 164.624,77.705 164.544,76.953 164.544 C 76.201 164.544,75.894 164.624,76.270 164.722 M222.754 234.655 C 223.345 234.744,224.312 234.744,224.902 234.655 C 225.493 234.565,225.010 234.492,223.828 234.492 C 222.646 234.492,222.163 234.565,222.754 234.655 " stroke="none" fill="#17072c" fill-rule="evenodd"></path><path id="path7" d="" stroke="none" fill="#040434" fill-rule="evenodd"></path><path id="path8" d="" stroke="none" fill="#080c30" fill-rule="evenodd"></path></g></svg>