<?xml version="1.0" encoding="UTF-8" standalone="no"?>
<svg
   xmlns:dc="http://purl.org/dc/elements/1.1/"
   xmlns:cc="http://creativecommons.org/ns#"
   xmlns:rdf="http://www.w3.org/1999/02/22-rdf-syntax-ns#"
   xmlns:svg="http://www.w3.org/2000/svg"
   xmlns="http://www.w3.org/2000/svg"
   width="210mm"
   height="45mm"
   viewBox="0 0 210 45"
   version="1.1"
   id="svg8">
  <defs
     id="defs2" />
  <metadata
     id="metadata5">
    <rdf:RDF>
      <cc:Work
         rdf:about="">
        <dc:format>image/svg+xml</dc:format>
        <dc:type
           rdf:resource="http://purl.org/dc/dcmitype/StillImage" />
        <dc:title></dc:title>
      </cc:Work>
    </rdf:RDF>
  </metadata>
  <g
     id="layer1"
     transform="translate(0,-252)">
    <g
       id="g826"
       transform="translate(24.054257,-69.490077)">
      <path
         style="fill:#fe7416;stroke-width:0.15343237"
         d="m -1.272099,363.67444 c -3.8152767,0.10936 -6.7413401,-4.327 -5.2616651,-7.81829 0.9176708,-2.49296 3.6481809,-4.02296 6.25092765,-3.7953 2.83432915,-0.10258 5.76559735,-2.02285 6.19546335,-4.97647 0.4007162,-2.25474 0.014863,-4.91265 1.8119424,-6.66763 2.3123297,-2.69132 7.1375297,-2.43429 9.0361477,0.61373 1.104384,1.39557 1.049805,3.19606 1.199217,4.86419 0.312946,2.46018 1.963706,4.90708 4.533323,5.36609 2.413766,0.58279 5.366427,0.11926 7.19476,2.1531 2.607048,2.53046 1.955017,7.52615 -1.402993,9.09445 -2.676447,1.47555 -6.479594,0.51126 -7.817871,-2.32891 -1.157283,-2.4259 -0.389603,-5.46833 -2.191284,-7.64911 -1.996069,-2.43397 -5.459855,-2.61551 -8.3407787,-2.11383 -2.5341151,0.29579 -4.6411638,2.39738 -5.0039052,4.91196 -0.4544589,2.14761 -0.00647,4.6788 -1.6886544,6.38772 -1.1317836,1.25383 -2.81977303,2.01208 -4.5146297,1.9583 z"
         id="path828" />
      <path
         style="fill:#fe7416;fill-opacity:0.67708333;stroke-width:0.15343237"
         d="m -1.2700861,325.09798 c -3.8152785,-0.10936 -6.7413417,4.32699 -5.2616669,7.81826 0.9176727,2.49297 3.6481811,4.02297 6.25092779,3.79533 2.83432841,0.10257 5.76559661,2.02287 6.19546151,4.97645 0.4007184,2.25477 0.014863,4.91268 1.8119445,6.66767 2.3123282,2.69129 7.1375302,2.43427 9.0361462,-0.61376 1.104384,-1.39557 1.049807,-3.19605 1.199215,-4.86417 0.312951,-2.4602 1.963708,-4.9071 4.533317,-5.36611 2.413776,-0.58277 5.366436,-0.11927 7.194768,-2.15307 2.607049,-2.53049 1.955017,-7.52619 -1.402992,-9.09445 -2.676455,-1.47555 -6.479593,-0.51129 -7.81787,2.32887 -1.157285,2.42592 -0.389599,5.46832 -2.191284,7.64913 -1.996068,2.43397 -5.459858,2.6155 -8.3407807,2.11381 -2.5341156,-0.29578 -4.6411645,-2.39736 -5.0039058,-4.91193 -0.4544588,-2.14763 -0.00647,-4.67881 -1.6886522,-6.38772 -1.1317858,-1.25384 -2.81977339,-2.0121 -4.5146284,-1.95831 z"
         id="path828-6" />
      <path
         style="fill:#fe7416;fill-opacity:0.25520833;stroke-width:0.15343237"
         d="m 4.6198038,330.7418 c 0.1093093,-3.81528 -4.32699004,-6.74133 -7.8182683,-5.26168 -2.492966,0.91771 -3.8873007,3.60298 -3.7953201,6.25096 -0.1024916,2.83432 -2.0228622,5.7656 -4.9764434,6.19546 -2.254769,0.40074 -4.912667,0.0154 -6.667651,1.81193 -2.691308,2.31234 -2.434287,7.13755 0.613739,9.03617 1.395568,1.10439 3.19605,1.04981 4.864171,1.19923 2.460191,0.31294 4.9070975,1.96368 5.3660962,4.53332 0.5827928,2.41377 0.5715081,5.23076 2.6053371,7.05909 2.5304646,2.60705 7.0739251,2.0907 8.6421888,-1.26733 1.4755658,-2.67645 0.5112885,-6.47958 -2.3288881,-7.81787 -2.493735,-1.02161 -5.4683184,-0.38961 -7.6491037,-2.19129 -2.4339866,-1.99606 -2.6155161,-5.45986 -2.1138363,-8.34078 0.2957923,-2.53411 2.2390983,-4.77685 4.7536696,-5.13958 2.5998555,-0.22835 4.83708263,0.12919 6.5459956,-1.55299 1.253829,-1.13178 2.0121103,-2.81978 1.9583136,-4.51464 z"
         id="path828-6-7" />
      <g
         transform="matrix(1.0785857,0,0,1.0785857,-6.325379,-20.219613)"
         aria-label="UNIGRID"
         style="font-style:normal;font-variant:normal;font-weight:normal;font-stretch:normal;font-size:26.34367943px;line-height:125%;font-family:'Times New Roman';-inkscape-font-specification:'Times New Roman';letter-spacing:0px;word-spacing:0px;fill:#d7d7d7;fill-opacity:1;stroke:none;stroke-width:0.18294217px;stroke-linecap:butt;stroke-linejoin:miter;stroke-opacity:1"
         id="text932">
        <path
           d="m 65.509683,336.97475 v -15.80621 h 2.133838 v 15.80621 q 0,1.31718 -0.922029,2.23921 -0.922028,0.92203 -2.239212,0.92203 H 51.837314 q -1.317184,0 -2.239213,-0.92203 -0.922029,-0.92203 -0.922029,-2.23921 v -15.80621 h 2.133838 v 15.80621 q 0,0.4215 0.289781,0.73762 0.316124,0.28978 0.737623,0.28978 H 64.48228 q 0.421499,0 0.711279,-0.28978 0.316124,-0.31612 0.316124,-0.73762 z"
           style="font-style:normal;font-variant:normal;font-weight:normal;font-stretch:normal;line-height:125%;font-family:Orbitron;-inkscape-font-specification:Orbitron;letter-spacing:1.21292031px;word-spacing:0px;fill:#d7d7d7;fill-opacity:1;stroke-width:0.18294217px"
           id="path852" />
        <path
           d="m 88.591151,337.71237 v -16.54383 h 2.133838 v 18.96745 H 87.80084 L 73.891377,323.59216 v 16.54383 h -2.133838 v -18.96745 h 2.924149 z"
           style="font-style:normal;font-variant:normal;font-weight:normal;font-stretch:normal;line-height:125%;font-family:Orbitron;-inkscape-font-specification:Orbitron;letter-spacing:1.21292031px;word-spacing:0px;fill:#d7d7d7;fill-opacity:1;stroke-width:0.18294217px"
           id="path854" />
        <path
           d="m 94.915568,340.13599 v -18.96745 h 2.133838 v 18.96745 z"
           style="font-style:normal;font-variant:normal;font-weight:normal;font-stretch:normal;line-height:125%;font-family:Orbitron;-inkscape-font-specification:Orbitron;letter-spacing:1.21292031px;word-spacing:0px;fill:#d7d7d7;fill-opacity:1;stroke-width:0.18294217px"
           id="path856" />
        <path
           d="m 120.88372,324.32978 v 0.76397 h -2.13383 v -0.76397 q 0,-0.4215 -0.31613,-0.71128 -0.28978,-0.31612 -0.71128,-0.31612 h -12.64496 q -0.4215,0 -0.73763,0.31612 -0.28978,0.28978 -0.28978,0.71128 v 12.64497 q 0,0.4215 0.28978,0.73762 0.31613,0.28978 0.73763,0.28978 h 12.64496 q 0.4215,0 0.71128,-0.28978 0.31613,-0.31612 0.31613,-0.73762 v -4.68918 h -4.68918 v -2.16018 h 6.82301 v 6.84936 q 0,1.31718 -0.92202,2.23921 -0.92203,0.92203 -2.23922,0.92203 h -12.64496 q -1.31719,0 -2.23922,-0.92203 -0.92203,-0.92203 -0.92203,-2.23921 v -12.64497 q 0,-1.31718 0.92203,-2.23921 0.92203,-0.92203 2.23922,-0.92203 h 12.64496 q 1.31719,0 2.23922,0.92203 0.92202,0.92203 0.92202,2.23921 z"
           style="font-style:normal;font-variant:normal;font-weight:normal;font-stretch:normal;line-height:125%;font-family:Orbitron;-inkscape-font-specification:Orbitron;letter-spacing:1.21292031px;word-spacing:0px;fill:#d7d7d7;fill-opacity:1;stroke-width:0.18294217px"
           id="path858" />
        <path
           d="m 143.93761,324.35612 v 5.55852 q 0,1.31718 -0.92203,2.23921 -0.92203,0.92203 -2.23921,0.92203 h -2.89781 l 5.95368,7.06011 h -2.81878 l -5.92733,-7.06011 h -6.95473 q -0.23709,0 -1.0274,-0.10537 v 7.16548 h -2.13384 v -18.94111 h 15.80621 q 1.31718,0 2.23921,0.92203 0.92203,0.92203 0.92203,2.23921 z m -15.80621,6.55958 h 12.64497 q 0.4215,0 0.71128,-0.28978 0.28978,-0.28978 0.28978,-0.71128 v -5.55852 q 0,-0.42149 -0.28978,-0.71128 -0.28978,-0.31612 -0.71128,-0.31612 H 128.1314 q -0.4215,0 -0.73762,0.31612 -0.28978,0.28979 -0.28978,0.71128 v 5.55852 q 0,0.4215 0.28978,0.71128 0.31612,0.28978 0.73762,0.28978 z"
           style="font-style:normal;font-variant:normal;font-weight:normal;font-stretch:normal;line-height:125%;font-family:Orbitron;-inkscape-font-specification:Orbitron;letter-spacing:1.21292031px;word-spacing:0px;fill:#d7d7d7;fill-opacity:1;stroke-width:0.18294217px"
           id="path860" />
        <path
           d="m 147.94873,340.13599 v -18.96745 h 2.13384 v 18.96745 z"
           style="font-style:normal;font-variant:normal;font-weight:normal;font-stretch:normal;line-height:125%;font-family:Orbitron;-inkscape-font-specification:Orbitron;letter-spacing:1.21292031px;word-spacing:0px;fill:#d7d7d7;fill-opacity:1;stroke-width:0.18294217px"
           id="path862" />
        <path
           d="m 155.00212,321.16854 h 15.80621 q 1.31718,0 2.23921,0.92203 0.92203,0.92203 0.92203,2.23921 v 12.64497 q 0,1.31718 -0.92203,2.23921 -0.92203,0.92203 -2.23921,0.92203 h -15.80621 z m 16.83361,15.80621 v -12.64497 q 0,-0.4215 -0.31612,-0.71128 -0.28978,-0.31612 -0.71128,-0.31612 h -12.64497 q -0.4215,0 -0.73762,0.31612 -0.28978,0.28978 -0.28978,0.71128 v 12.64497 q 0,0.4215 0.28978,0.73762 0.31612,0.28978 0.73762,0.28978 h 12.64497 q 0.4215,0 0.71128,-0.28978 0.31612,-0.31612 0.31612,-0.73762 z"
           style="font-style:normal;font-variant:normal;font-weight:normal;font-stretch:normal;line-height:125%;font-family:Orbitron;-inkscape-font-specification:Orbitron;letter-spacing:1.21292031px;word-spacing:0px;fill:#d7d7d7;fill-opacity:1;stroke-width:0.18294217px"
           id="path864" />
      </g>
      <g
         transform="matrix(1.0785857,0,0,1.0785857,-6.325379,-20.219613)"
         aria-label="SHARDED  INTERNET"
         style="font-style:normal;font-variant:normal;font-weight:normal;font-stretch:normal;font-size:11.95151711px;line-height:125%;font-family:'Times New Roman';-inkscape-font-specification:'Times New Roman';letter-spacing:0px;word-spacing:0px;fill:#fe7416;fill-opacity:1;stroke:none;stroke-width:0.08299665px;stroke-linecap:butt;stroke-linejoin:miter;stroke-opacity:1"
         id="text824">
        <path
           d="m 48.018612,353.61349 q 0.478061,0.11952 1.111491,0.20318 0.645382,0.0717 1.231007,0.0717 0.609527,0 1.350521,-0.0717 v -2.22298 l -1.135394,-0.0837 q -1.09954,-0.0837 -1.649309,-0.27489 -0.54977,-0.20318 -0.776849,-0.62148 -0.215127,-0.43025 -0.215127,-1.231 0,-0.86051 0.215127,-1.36248 0.227079,-0.51391 0.717091,-0.74099 0.501964,-0.22708 1.33857,-0.22708 1.207103,0 2.414206,0.22708 l -0.155369,0.94417 q -0.956122,-0.17927 -2.187128,-0.17927 -0.609527,0 -1.039782,0.0598 v 2.24689 l 1.326619,0.0837 q 0.956121,0.0598 1.481988,0.28684 0.525866,0.21512 0.740994,0.68123 0.227079,0.45416 0.227079,1.26686 0,0.83661 -0.262934,1.31467 -0.262933,0.47806 -0.860509,0.69319 -0.597576,0.20317 -1.637358,0.20317 -1.266861,0 -2.414206,-0.28683 z"
           style="font-style:normal;font-variant:normal;font-weight:normal;font-stretch:normal;font-family:Changa;-inkscape-font-specification:Changa;letter-spacing:1.51129019px;fill:#fe7416;fill-opacity:1;stroke-width:0.08299665px"
           id="path821" />
        <path
           d="m 61.583381,347.23138 v 7.4697 h -1.195152 v -3.22691 h -3.107394 v 3.22691 h -1.195152 v -7.4697 h 1.195152 V 350.53 h 3.107394 v -3.29862 z"
           style="font-style:normal;font-variant:normal;font-weight:normal;font-stretch:normal;font-family:Changa;-inkscape-font-specification:Changa;letter-spacing:1.51129019px;fill:#fe7416;fill-opacity:1;stroke-width:0.08299665px"
           id="path823" />
        <path
           d="m 68.898628,353.02787 h -2.856413 l -0.490012,1.67321 h -1.195152 l 2.211031,-7.4697 h 1.804679 l 2.21103,7.4697 H 69.38864 Z m -0.274885,-0.94417 -1.09954,-3.75278 H 67.416639 L 66.3171,352.0837 Z"
           style="font-style:normal;font-variant:normal;font-weight:normal;font-stretch:normal;font-family:Changa;-inkscape-font-specification:Changa;letter-spacing:1.51129019px;fill:#fe7416;fill-opacity:1;stroke-width:0.08299665px"
           id="path825" />
        <path
           d="m 77.482601,354.70108 -1.242957,-2.64128 h -1.697116 v 2.64128 h -1.195152 v -7.4697 h 2.98788 q 0.800751,0 1.242958,0.23903 0.454157,0.23903 0.645381,0.7888 0.203176,0.53782 0.203176,1.49394 0,0.92027 -0.23903,1.44614 -0.227079,0.51391 -0.752946,0.71709 l 1.350522,2.7847 z m -2.940073,-3.58545 h 1.804679 q 0.466109,0 0.645382,-0.10757 0.179273,-0.10756 0.179273,-0.3944 v -1.88834 q 0,-0.28683 -0.179273,-0.3944 -0.179273,-0.10756 -0.645382,-0.10756 h -1.804679 z"
           style="font-style:normal;font-variant:normal;font-weight:normal;font-stretch:normal;font-family:Changa;-inkscape-font-specification:Changa;letter-spacing:1.51129019px;fill:#fe7416;fill-opacity:1;stroke-width:0.08299665px"
           id="path827" />
        <path
           d="m 84.46862,347.23138 q 1.254909,0 1.864436,0.29879 0.609528,0.28684 0.836606,1.06369 0.227079,0.76489 0.227079,2.37835 0,1.6015 -0.227079,2.37835 -0.227078,0.7649 -0.836606,1.06368 -0.609527,0.28684 -1.864436,0.28684 h -2.67714 v -7.4697 z m -1.481989,6.47772 h 2.187128 q 0.525867,0 0.729043,-0.19122 0.203175,-0.19122 0.203175,-0.68124 v -3.74082 q 0,-0.49001 -0.203175,-0.68124 -0.203176,-0.19122 -0.729043,-0.19122 h -2.187128 z"
           style="font-style:normal;font-variant:normal;font-weight:normal;font-stretch:normal;font-family:Changa;-inkscape-font-specification:Changa;letter-spacing:1.51129019px;fill:#fe7416;fill-opacity:1;stroke-width:0.08299665px"
           id="path829" />
        <path
           d="m 91.944277,353.7091 h 3.286667 v 0.99198 h -4.481819 v -7.4697 h 4.445965 l -0.143419,0.99198 h -3.107394 v 2.27079 h 2.832509 v 0.94417 h -2.832509 z"
           style="font-style:normal;font-variant:normal;font-weight:normal;font-stretch:normal;font-family:Changa;-inkscape-font-specification:Changa;letter-spacing:1.51129019px;fill:#fe7416;fill-opacity:1;stroke-width:0.08299665px"
           id="path831" />
        <path
           d="m 101.10005,347.23138 q 1.25491,0 1.86444,0.29879 0.60953,0.28684 0.83661,1.06369 0.22708,0.76489 0.22708,2.37835 0,1.6015 -0.22708,2.37835 -0.22708,0.7649 -0.83661,1.06368 -0.60953,0.28684 -1.86444,0.28684 h -2.677135 v -7.4697 z m -1.481983,6.47772 h 2.187123 q 0.52587,0 0.72905,-0.19122 0.20317,-0.19122 0.20317,-0.68124 v -3.74082 q 0,-0.49001 -0.20317,-0.68124 -0.20318,-0.19122 -0.72905,-0.19122 h -2.187123 z"
           style="font-style:normal;font-variant:normal;font-weight:normal;font-stretch:normal;font-family:Changa;-inkscape-font-specification:Changa;letter-spacing:1.51129019px;fill:#fe7416;fill-opacity:1;stroke-width:0.08299665px"
           id="path833" />
        <path
           d="m 117.57405,347.23138 v 7.4697 h -1.19515 v -7.4697 z"
           style="font-style:normal;font-variant:normal;font-weight:normal;font-stretch:normal;font-family:Changa;-inkscape-font-specification:Changa;letter-spacing:1.51129019px;fill:#fe7416;fill-opacity:1;stroke-width:0.08299665px"
           id="path835" />
        <path
           d="m 121.28797,347.23138 h 1.1593 l 2.89226,4.66109 q 0.17928,0.31074 0.23904,0.44221 0.0597,0.11952 0.0717,0.29879 h 0.0717 v -5.40209 h 1.19516 v 7.4697 h -1.1593 l -2.89227,-4.66109 q -0.17927,-0.31074 -0.23903,-0.43026 -0.0598,-0.13146 -0.0717,-0.31074 h -0.0717 v 5.40209 h -1.19515 z"
           style="font-style:normal;font-variant:normal;font-weight:normal;font-stretch:normal;font-family:Changa;-inkscape-font-specification:Changa;letter-spacing:1.51129019px;fill:#fe7416;fill-opacity:1;stroke-width:0.08299665px"
           id="path837" />
        <path
           d="m 132.90016,354.70108 h -1.19515 v -6.47772 h -1.972 v -0.99198 h 5.13915 v 0.99198 h -1.972 z"
           style="font-style:normal;font-variant:normal;font-weight:normal;font-stretch:normal;font-family:Changa;-inkscape-font-specification:Changa;letter-spacing:1.51129019px;fill:#fe7416;fill-opacity:1;stroke-width:0.08299665px"
           id="path839" />
        <path
           d="m 138.84471,353.7091 h 3.28667 v 0.99198 h -4.48182 v -7.4697 h 4.44597 l -0.14342,0.99198 h -3.1074 v 2.27079 h 2.83251 v 0.94417 h -2.83251 z"
           style="font-style:normal;font-variant:normal;font-weight:normal;font-stretch:normal;font-family:Changa;-inkscape-font-specification:Changa;letter-spacing:1.51129019px;fill:#fe7416;fill-opacity:1;stroke-width:0.08299665px"
           id="path841" />
        <path
           d="m 149.45858,354.70108 -1.24296,-2.64128 h -1.69712 v 2.64128 h -1.19515 v -7.4697 h 2.98788 q 0.80075,0 1.24296,0.23903 0.45416,0.23903 0.64538,0.7888 0.20318,0.53782 0.20318,1.49394 0,0.92027 -0.23903,1.44614 -0.22708,0.51391 -0.75295,0.71709 l 1.35052,2.7847 z m -2.94008,-3.58545 h 1.80468 q 0.46611,0 0.64538,-0.10757 0.17928,-0.10756 0.17928,-0.3944 v -1.88834 q 0,-0.28683 -0.17928,-0.3944 -0.17927,-0.10756 -0.64538,-0.10756 h -1.80468 z"
           style="font-style:normal;font-variant:normal;font-weight:normal;font-stretch:normal;font-family:Changa;-inkscape-font-specification:Changa;letter-spacing:1.51129019px;fill:#fe7416;fill-opacity:1;stroke-width:0.08299665px"
           id="path843" />
        <path
           d="m 153.82722,347.23138 h 1.15929 l 2.89227,4.66109 q 0.17927,0.31074 0.23903,0.44221 0.0598,0.11952 0.0717,0.29879 h 0.0717 v -5.40209 h 1.19515 v 7.4697 h -1.1593 l -2.89226,-4.66109 q -0.17928,-0.31074 -0.23903,-0.43026 -0.0598,-0.13146 -0.0717,-0.31074 h -0.0717 v 5.40209 h -1.19515 z"
           style="font-style:normal;font-variant:normal;font-weight:normal;font-stretch:normal;font-family:Changa;-inkscape-font-specification:Changa;letter-spacing:1.51129019px;fill:#fe7416;fill-opacity:1;stroke-width:0.08299665px"
           id="path845" />
        <path
           d="m 164.36377,353.7091 h 3.28667 v 0.99198 h -4.48182 v -7.4697 h 4.44596 l -0.14341,0.99198 h -3.1074 v 2.27079 h 2.83251 v 0.94417 h -2.83251 z"
           style="font-style:normal;font-variant:normal;font-weight:normal;font-stretch:normal;font-family:Changa;-inkscape-font-specification:Changa;letter-spacing:1.51129019px;fill:#fe7416;fill-opacity:1;stroke-width:0.08299665px"
           id="path847" />
        <path
           d="m 173.1132,354.70108 h -1.19515 v -6.47772 h -1.972 v -0.99198 h 5.13915 v 0.99198 h -1.972 z"
           style="font-style:normal;font-variant:normal;font-weight:normal;font-stretch:normal;font-family:Changa;-inkscape-font-specification:Changa;letter-spacing:1.51129019px;fill:#fe7416;fill-opacity:1;stroke-width:0.08299665px"
           id="path849" />
      </g>
      <rect
         style="opacity:1;fill:#fe7416;fill-opacity:1;stroke:none;stroke-width:0.26458332;stroke-opacity:1"
         id="rect921"
         width="2.9399648"
         height="0.26726952"
         x="187.35593"
         y="188.75584" />
    </g>
  </g>
</svg>
